<?xml version="1.0" encoding="utf-8"?>
<!-- Generator: Adobe Illustrator 27.5.0, SVG Export Plug-In . SVG Version: 6.00 Build 0)  -->
<svg version="1.1" xmlns="http://www.w3.org/2000/svg" xmlns:xlink="http://www.w3.org/1999/xlink" x="0px" y="0px"
	 viewBox="0 0 750 500" style="enable-background:new 0 0 750 500;" xml:space="preserve">
<g id="BACKGROUND">
	<rect style="fill:#FBF0E1;" width="750" height="500"/>
</g>
<g id="OBJECTS">
	<g>
		<path style="fill:#292925;" d="M291.198,382.307c-18.829,0-35.485-4.356-49.957-13.059c-14.478-8.703-25.814-21.359-34.014-37.962
			c-8.2-16.598-12.3-36.642-12.3-60.131c0-23.484,4.1-43.528,12.3-60.131c8.2-16.598,19.536-29.254,34.014-37.961
			c14.473-8.703,31.129-13.06,49.957-13.06c18.829,0,35.48,4.357,49.958,13.06c14.473,8.707,25.814,21.363,34.013,37.961
			c8.2,16.604,12.3,36.647,12.3,60.131c0,23.49-4.1,43.533-12.3,60.131c-8.2,16.604-19.541,29.259-34.013,37.962
			C326.678,377.951,310.026,382.307,291.198,382.307z M291.198,324.909c4.655,0,8.807-1.618,12.452-4.859
			c3.644-3.237,6.529-8.807,8.655-16.704c2.126-7.895,3.189-18.624,3.189-32.191c0-13.766-1.063-24.546-3.189-32.343
			c-2.126-7.791-5.011-13.31-8.655-16.551c-3.645-3.237-7.797-4.859-12.452-4.859c-4.66,0-8.807,1.622-12.451,4.859
			c-3.645,3.241-6.53,8.76-8.656,16.551c-2.126,7.796-3.189,18.577-3.189,32.343c0,13.567,1.063,24.296,3.189,32.191
			c2.126,7.897,5.011,13.467,8.656,16.704C282.39,323.29,286.537,324.909,291.198,324.909z"/>
		<path style="fill:#DE5423;" d="M483.385,314.252l33.531-23.681c11.395-7.966,20.17-15.395,26.334-22.279
			c6.159-6.885,10.517-13.635,13.076-20.256c2.554-6.616,4.26-13.341,5.11-20.175c1.673-13.458-0.494-25.563-6.503-36.309
			c-6.01-10.74-15.108-19.628-27.289-26.652c-12.187-7.024-26.617-11.572-43.291-13.645c-22.706-2.823-42.254-0.662-58.646,6.48
			c-16.395,7.143-29.309,17.473-38.741,30.991l50.31,33.491c4.011-6.028,9.039-10.353,15.078-12.967
			c6.034-2.616,12.17-3.537,18.399-2.763c6.828,0.849,11.77,2.945,14.827,6.282c3.052,3.34,4.256,7.621,3.606,12.843
			c-0.3,2.41-1.024,4.922-2.161,7.535c-1.143,2.612-3.083,5.484-5.814,8.612c-2.737,3.131-6.802,6.704-12.198,10.724l-85.016,61.042
			l-5.433,43.7l169.071,21.02l6.857-55.151L483.385,314.252z"/>
		<path style="fill:#538985;" d="M153.267,268.737l26.979-30.939c9.189-10.435,15.958-19.729,20.319-27.875
			c4.356-8.146,6.995-15.736,7.915-22.774c0.917-7.032,0.984-13.97,0.193-20.811c-1.557-13.472-6.525-24.721-14.905-33.741
			c-8.379-9.014-19.322-15.499-32.819-19.442c-13.501-3.942-28.597-4.949-45.289-3.02c-22.73,2.627-41.213,9.35-55.449,20.166
			c-14.241,10.818-24.345,23.909-30.313,39.274l56.804,20.643c2.471-6.806,6.333-12.197,11.583-16.165
			c5.245-3.969,10.988-6.315,17.224-7.036c6.835-0.79,12.132,0.078,15.891,2.597c3.755,2.523,5.937,6.398,6.541,11.626
			c0.279,2.413,0.17,5.024-0.317,7.832c-0.493,2.808-1.698,6.057-3.613,9.742c-1.919,3.69-5.023,8.122-9.316,13.304l-68.167,79.416
			l5.056,43.745l169.246-19.561l-6.381-55.208L153.267,268.737z"/>
	</g>
	<g>
		<g>
			<g>
				<g>
					<polygon style="fill:#F99B9B;" points="633.617,404.306 638.039,417.234 664.763,411.106 658.282,389.654 					"/>
					<g>
						<path style="fill:#292925;" d="M609.373,443.604c0,0-3.76,9.46,18.806,5.374c7.205-1.955,33.029-15.433,42.052-21.639
							c3.076-2.116,3.914-6.29,1.886-9.425l-2.421-3.744L609.373,443.604z"/>
						<path style="fill:#538985;" d="M611.99,446.851l7.538,0.596c2.218,0,9.371-1.179,11.293-2.286l35.549-18.91
							c4.229-2.437,5.712-7.822,3.326-12.08l-8.508-15.187c0,0-14.219,19.978-24.923,12.282l-13.962,25.347l-11.409,5.122
							C608.264,442.916,609.106,446.851,611.99,446.851z"/>
						<circle style="fill:#0D0000;" cx="658.975" cy="417.234" r="3.617"/>
						<path style="fill:#538985;" d="M635.356,413.028c0,0-5.264-3.276-1.739-5.879c3.525-2.603,9.784,6.468,9.784,6.468
							L635.356,413.028z"/>
						<path style="fill:#0D0000;" d="M632.171,429.404c0.295,0.31,0.69,0.467,1.087,0.467c0.371,0,0.743-0.137,1.033-0.413
							c0.601-0.57,0.625-1.521,0.054-2.12c-1.941-2.042-3.581-3.114-4.925-3.646l-1.455,2.641
							C628.81,426.595,630.21,427.342,632.171,429.404z"/>
						<path style="fill:#0D0000;" d="M634.917,424.486c0.295,0.311,0.69,0.467,1.087,0.467c0.371,0,0.743-0.137,1.033-0.413
							c0.601-0.57,0.625-1.521,0.054-2.12c-1.956-2.058-3.606-3.13-4.955-3.658l-1.456,2.643
							C631.574,421.663,632.991,422.46,634.917,424.486z"/>
						<path style="fill:#0D0000;" d="M636.815,419.568c0.295,0.311,0.69,0.467,1.087,0.467c0.371,0,0.743-0.137,1.033-0.413
							c0.601-0.57,0.625-1.521,0.054-2.12c-1.652-1.737-3.083-2.767-4.303-3.368l-1.44,2.615
							C634.095,417.151,635.284,417.958,636.815,419.568z"/>
					</g>
				</g>
				<g>
					<path style="fill:#292925;" d="M739.076,278.997c0,0,9.383,3.947,5.747-18.696c-1.812-7.243-14.774-33.329-20.8-42.473
						c-2.055-3.118-6.211-4.038-9.386-2.073l-3.792,2.346L739.076,278.997z"/>
					<polygon style="fill:#F99B9B;" points="700.268,253.977 713.28,249.813 707.684,222.973 686.108,229.026 					"/>
					<path style="fill:#538985;" d="M742.374,276.444l0.745-7.525c0.044-2.218-0.992-9.393-2.062-11.336l-18.201-35.917
						c-2.353-4.277-7.707-5.866-12.012-3.565l-15.353,8.206c0,0,19.692,14.613,11.785,25.162l25.065,14.462l4.895,11.508
						C738.366,280.092,742.317,279.328,742.374,276.444z"/>
					<path style="fill:#0D0000;" d="M713.768,225.264c1.997,0.04,3.584,1.691,3.544,3.688c-0.04,1.997-1.691,3.584-3.688,3.545
						c-1.997-0.04-3.584-1.691-3.545-3.688C710.119,226.812,711.77,225.225,713.768,225.264z"/>
					<path style="fill:#538985;" d="M709.022,252.412c0,0-3.38,5.198-5.912,1.622c-2.533-3.576,6.661-9.653,6.661-9.653
						L709.022,252.412z"/>
					<path style="fill:#0D0000;" d="M725.331,255.921c0.316-0.289,0.48-0.681,0.488-1.077c0.007-0.371-0.122-0.746-0.393-1.041
						c-0.558-0.612-1.508-0.655-2.119-0.096c-2.08,1.9-3.185,3.519-3.743,4.851l2.611,1.507
						C722.456,259.227,723.231,257.841,725.331,255.921z"/>
					<path style="fill:#0D0000;" d="M720.469,253.078c0.316-0.289,0.48-0.681,0.488-1.077c0.007-0.371-0.122-0.746-0.393-1.041
						c-0.558-0.612-1.508-0.655-2.119-0.096c-2.096,1.915-3.201,3.543-3.755,4.882l2.614,1.508
						C717.58,256.365,718.405,254.964,720.469,253.078z"/>
					<path style="fill:#0D0000;" d="M715.59,251.083c0.316-0.289,0.48-0.681,0.488-1.077c0.007-0.371-0.122-0.746-0.393-1.041
						c-0.558-0.612-1.508-0.655-2.119-0.096c-1.77,1.617-2.828,3.028-3.453,4.236l2.586,1.492
						C713.12,253.754,713.95,252.582,715.59,251.083z"/>
				</g>
				<g>
					<path style="fill:#292925;" d="M622.823,230.17l12.94,19.805l48.587-23.543c1.805-0.874,3.973-0.184,4.938,1.574
						c5.417,9.869,20.576,40.051,5.728,44.036c-22.828,6.128-42.479,15.83-42.479,15.83l-35.945-9.191L622.823,230.17z"/>
					<path style="fill:#292925;" d="M547.486,246l81.38,160.102c0,0,19.045,1.26,32.322-14.74l-77.617-166.468L547.486,246z"/>
				</g>
			</g>
			<g>
				<g>
					<g>
						<path style="fill:#292925;" d="M567.237,104.415c8.362-0.722,18.292-5.537,25.719,0.573
							c4.62,3.973,5.527,11.433,10.526,14.885c11.013,4.701,23.05-0.62,28.749,17.692c4.424,14.216-7.343,27.788-21.407,22.233
							c-17.313-7.653-28.862-22.563-49.669-19.614c-18.753-0.665-21.082-18.462-9.916-32.912c1.187-1.535-2.496-8.507-0.346-9.102
							C556.52,99.584,559.563,105.963,567.237,104.415z"/>
						
							<path style="fill:none;stroke:#292925;stroke-width:0.75;stroke-linecap:round;stroke-linejoin:round;stroke-miterlimit:10;" d="
							M558.994,102.957c1.918,1.257,4.434,0.623,6.542-0.228c5.509-2.225,10.829-5.739,16.755-5.556
							c3.85,0.119,7.633,1.912,10.232,4.849c2.599,2.937,3.979,6.978,3.732,10.93"/>
						
							<path style="fill:none;stroke:#292925;stroke-width:0.75;stroke-linecap:round;stroke-linejoin:round;stroke-miterlimit:10;" d="
							M621.726,125.083c4.39,0.16,8.66,2.576,11.151,6.311c0.932,1.398,1.622,2.955,2.14,4.563c0.919,2.85,1.302,5.949,0.6,8.855
							c-0.701,2.906-2.598,5.584-5.288,6.724"/>
					</g>
					<path style="fill:#292925;" d="M528.335,120.103c-2.349,1.289-4.997,1.52-7.04,3.727c-1.503,1.624-2.533,4.301-2.639,7.127
						c-0.106,2.826,0.752,5.729,2.261,7.341c0.939,1.003,2.066,1.488,3.18,1.88c3.509,1.235,7.129,1.715,10.722,1.422
						c2.089-0.17,4.598-1.124,5.197-4.216c0.474-2.447-0.529-4.918-1.345-7.139c-1.255-3.415-2.177-7.288-1.957-11.199
						c0.174-3.089,1.086-6.001,1.147-9.109c0.074-3.78-1.252-3.654-2.198-0.763C534.047,114.119,531.825,118.188,528.335,120.103z"
						/>
				</g>
				<g>
					<g>
						<path style="fill:#F99B9B;" d="M446.195,144.244c-5.651,4.359,12.131,2.095,12.962,0.264
							C458.323,139.61,449.356,142.708,446.195,144.244z"/>
						<path style="fill:#F99B9B;" d="M502.222,161.501c0.47,7.655-4.803,26.954,1.464,33.089
							c13.222,14.592,17.689-13.055,19.46-21.782L502.222,161.501z"/>
						<path style="fill:#F99B9B;" d="M515.212,196.38c0,0-4.392,7.511-15.386,0c-16.851-11.513-43.574-52.075-43.574-52.075
							l-3.404-18.646c0,0,4.426-7.136,16.17,5.957c11.745,13.093,51.251,53.89,51.251,53.89S518.075,192.443,515.212,196.38z"/>
						<g>
							<path style="fill:#F99B9B;" d="M454.885,123.589c4.182-1.26,14.85,5.47,15.388,9.693
								C458.999,138.514,436.898,129.009,454.885,123.589z"/>
							<g>
								<path style="fill:#E5AA41;" d="M452.122,115.231c0,0,2.34,18.038,6.052,18.051c4.501,0.016,6.052-18.051,6.052-18.051
									H452.122z"/>
								<path style="fill:#9F4F2C;" d="M464.227,115.231c0,0.762-2.71,1.38-6.052,1.38s-6.052-0.618-6.052-1.38
									c0-0.762,2.71-1.381,6.052-1.381S464.227,114.468,464.227,115.231z"/>
								<g>
									<path style="fill:#E5AA41;" d="M464.227,159.74c0,0.762-2.71,1.38-6.052,1.38s-6.052-0.618-6.052-1.38
										c0-0.762,2.71-1.38,6.052-1.38S464.227,158.977,464.227,159.74z"/>
									<rect x="457.541" y="132.668" style="fill:#E5AA41;" width="1.267" height="27.072"/>
								</g>
							</g>
							<path style="fill:#F99B9B;" d="M458.679,134.514c0.994,1.147,0.888,3.168-0.767,3.12c-5.527,0.728-14.032-8.41-7.875-11.815
								C453.427,124.727,456.308,132.491,458.679,134.514z"/>
							
								<path style="fill:none;stroke:#292925;stroke-width:0.75;stroke-linecap:round;stroke-linejoin:round;stroke-miterlimit:10;" d="
								M452.41,126.376c2.382,1.775,4.472,6.604,6.269,8.137c0.994,1.147,1.151,2.775-0.504,2.727"/>
							<g>
								<path style="fill:#F99B9B;" d="M447.7,135.328c2.232,2.602,5.406,4.933,8.978,5.044c2.493,0.008,4.042-0.789,1.497-3.717
									c-1.123-1.292-3.551-1.754-4.537-3.18C450.445,127.422,443.576,130.52,447.7,135.328z"/>
								
									<path style="fill:none;stroke:#292925;stroke-width:0.75;stroke-linecap:round;stroke-linejoin:round;stroke-miterlimit:10;" d="
									M457.541,140.372c2.493,0.008,2.642-2.378,0.924-3.93c-1.308-1.105-2.693-1.638-4.21-2.879
									c-2.343-1.917-4.424-3.289-5.152-3.632"/>
							</g>
							<g>
								<path style="fill:#F99B9B;" d="M449.787,142.269c0.946,0.864,4.734,1.169,7.145,0.574c1.48-0.365,1.553-2.23,0.131-2.748
									c-2.514-0.916-5.157-1.949-7.048-3.475C444.589,134.078,446.879,141.081,449.787,142.269z"/>
								
									<path style="fill:none;stroke:#292925;stroke-width:0.75;stroke-linecap:round;stroke-linejoin:round;stroke-miterlimit:10;" d="
									M449.787,142.269c1.696,0.656,4.734,1.169,7.145,0.574c1.48-0.365,1.553-2.23,0.131-2.748c0,0-7.059-1.274-8.822-4.163"/>
							</g>
							<g>
								<path style="fill:#F99B9B;" d="M456,129.859c-2.499-0.227-4.293,1.761-2.148,3.407c3.672,2.873,9.666,2.784,14.366,2.576
									c2.104-0.517,2.412-2.006,1.812-3.434c-0.828-1.972-3.136-3.14-5.489-2.992C461.71,129.595,458.863,130.014,456,129.859z"/>
								
									<path style="fill:none;stroke:#292925;stroke-width:0.75;stroke-linecap:round;stroke-linejoin:round;stroke-miterlimit:10;" d="
									M464.54,129.417c-2.83,0.179-5.677,0.597-8.541,0.442c-2.499-0.227-4.293,1.761-2.148,3.407
									c3.672,2.873,9.666,2.784,14.366,2.576"/>
							</g>
						</g>
						
							<line style="fill:none;stroke:#292925;stroke-width:0.75;stroke-linecap:round;stroke-linejoin:round;stroke-miterlimit:10;" x1="501.959" y1="166.507" x2="511.218" y2="176.133"/>
					</g>
					<path style="fill:#538985;" d="M520.272,133.722c0,0-17.893,1.299-19.765,26.491l21.421,16.095L520.272,133.722z"/>
				</g>
				<g>
					<path style="fill:#538985;" d="M533.803,131.558c-6.807,1.597-23.434,0.924-23.044,11.134
						c-0.007,9.022,7.072,35.562,17.514,55.931l85.344-9.232l-34.879-61.239C570.377,128.802,541.571,130.043,533.803,131.558z"/>
					
						<path style="fill:none;stroke:#292925;stroke-width:0.75;stroke-linecap:round;stroke-linejoin:round;stroke-miterlimit:10;" d="
						M519.282,177.612c-0.18-0.503-5.85-15.201-5.257-29.952"/>
				</g>
				<g>
					<g>
						<path style="fill:#F99B9B;" d="M534.668,125.532c2.204,4.589,4.34,9.15,3.237,14.194c-0.156,0.712-0.248,1.449-0.125,2.167
							c0.911,5.329,7.629,6.484,11.901,3.72c0.743-0.481,1.314-1.198,1.677-2.004c3.344-7.425-2.51-12.857-6.001-18.916
							C543.294,121.302,537.145,123.38,534.668,125.532z"/>
						<path style="fill:#292925;" d="M535.055,126.34c0.518,1.088,1.019,2.177,1.466,3.272c2.466-0.11,6.624-1.836,6.758-4.928
							C539.737,122.598,536.423,124.365,535.055,126.34z"/>
					</g>
					<g>
						<path style="fill:#F99B9B;" d="M532.316,110.727c-8.666,24.093,17.12,22.034,20.186-0.896
							c0.512-3.828-0.477-7.978-4.315-9.295C540.871,97.654,535.108,105.058,532.316,110.727z"/>
						<path style="fill:#292925;" d="M552.696,109.042c-4.201-0.515-10.55-1.186-9.484-6.904c-2.561,2.925-3.762,3.741-6.628,2.509
							c-1.1-0.473-1.565-1.815-1-2.87C541.015,91.634,558.987,95.77,552.696,109.042z"/>
						<g>
							<g>
								<path style="fill:#F99B9B;" d="M553.027,119.953c-1.503,1.315-3.556,1.421-4.586,0.238c-1.03-1.183-0.646-3.209,0.858-4.523
									c1.503-1.315,3.556-1.421,4.586-0.238C554.914,116.613,554.53,118.638,553.027,119.953z"/>
								
									<path style="fill:none;stroke:#292925;stroke-width:0.75;stroke-linecap:round;stroke-linejoin:round;stroke-miterlimit:10;" d="
									M552.092,116.018c-0.508-0.258-1.162-0.195-1.613,0.155c-0.451,0.35-0.675,0.968-0.554,1.526
									c0.243-0.265,0.57-0.468,0.927-0.501c0.358-0.033,0.742,0.128,0.92,0.441c0.094,0.166,0.126,0.363,0.116,0.554
									c-0.024,0.469-0.309,0.916-0.723,1.135c-0.414,0.219-0.942,0.204-1.342-0.04"/>
							</g>
							<g>
								
									<path style="fill:none;stroke:#292925;stroke-width:0.75;stroke-linecap:round;stroke-linejoin:round;stroke-miterlimit:10;" d="
									M540.884,110.744c1.951-0.9,4.446,0.086,5.255,2.076"/>
								
									<path style="fill:none;stroke:#292925;stroke-width:0.75;stroke-linecap:round;stroke-linejoin:round;stroke-miterlimit:10;" d="
									M534.668,107.796c1.369-0.768,2.85,0.216,3.303,1.661"/>
								
									<path style="fill:none;stroke:#292925;stroke-width:0.75;stroke-linecap:round;stroke-linejoin:round;stroke-miterlimit:10;" d="
									M533.826,118.25c0.891,1.742,4.068,1.977,5.435,0.765"/>
								<path style="fill:#DE5423;" d="M544.711,116.337c0,1.057-0.857,1.913-1.913,1.913s-1.913-0.857-1.913-1.913
									c0-1.057,0.857-1.913,1.913-1.913S544.711,115.28,544.711,116.337z"/>
								<path style="fill:#DE5423;" d="M536.32,111.614c0,1.057-0.857,1.913-1.913,1.913c-1.057,0-1.913-0.857-1.913-1.913
									c0-1.057,0.857-1.913,1.913-1.913C535.463,109.701,536.32,110.557,536.32,111.614z"/>
								
									<path style="fill:#F99B9B;stroke:#292925;stroke-width:0.75;stroke-linecap:round;stroke-linejoin:round;stroke-miterlimit:10;" d="
									M540.073,105.818c-0.886,2.959-2.808,7.125-6.498,6.51c-0.414,1.96,2.355,4.917,4.266,3.225"/>
							</g>
						</g>
					</g>
				</g>
				<g>
					<polygon style="fill:#F99B9B;" points="611.418,152.553 632.87,187.825 608.014,191.191 590.537,161.171 					"/>
					<path style="fill:#538985;" d="M577.021,128.732c0,0,22.652-5.966,38.652,20.587c0,0-11.404,19.161-26.213,17.021
						C589.461,166.34,578.199,149.677,577.021,128.732z"/>
					<g>
						<g>
							<path style="fill:#F99B9B;" d="M595.953,129.056c2.957,3.427-11.593,9.159-13.987,10.025
								C584.797,133.57,594.135,126.949,595.953,129.056z"/>
							<path style="fill:#F99B9B;" d="M588.186,195.181c-7.109-18.404-12.48-37.747-16.605-57.004
								c0.712-5.478,3.607-20.256,9.272-25.825c4.644-4.565,0.309,7.242-0.044,9.138c6.965-14.445,11.344-14.119,5.347,1.212
								c7.145-18.574,8.874-9.128,3.545,2.631c0.789-1.742,8.131-13.652,7.116-6.355c-0.491,3.532-11.429,18.62-11.66,19.447
								l30.468,53.447L588.186,195.181z"/>
						</g>
						
							<line style="fill:none;stroke:#292925;stroke-width:0.75;stroke-linecap:round;stroke-linejoin:round;stroke-miterlimit:10;" x1="597.793" y1="160.593" x2="612.465" y2="186.33"/>
						
							<polyline style="fill:none;stroke:#292925;stroke-width:0.75;stroke-linecap:round;stroke-linejoin:round;stroke-miterlimit:10;" points="
							572.522,132.668 571.776,139.081 578.738,166.906 						"/>
					</g>
				</g>
			</g>
		</g>
		<path style="fill:#E5AA41;" d="M665.907,278.591c-8.669-5.71-19.122-9.273-31.354-10.696l33.919-44.416l-5.49-43.691
			L505.689,199.55l6.739,53.636l75.419-9.476l-27.148,35.55l5.489,43.691l28.023-3.521c9.041-1.136,15.625-0.687,19.759,1.343
			c4.129,2.035,6.488,5.36,7.069,9.978c0.681,5.424-1.369,9.814-6.15,13.169c-4.782,3.356-11.193,5.538-19.226,6.548
			c-8.842,1.111-18.388,1.038-28.648-0.226c-10.259-1.26-20.237-3.934-29.933-8.023l-17.519,55.459
			c12.031,4.816,25.68,7.897,40.952,9.241c15.268,1.344,30.136,1.111,44.599-0.706c22.495-2.826,40.389-8.647,53.667-17.455
			c13.279-8.809,22.587-19.162,27.931-31.058c5.34-11.89,7.255-23.867,5.741-35.921
			C690.106,303.098,681.256,288.704,665.907,278.591z"/>
	</g>
	<g>
		<path style="fill:#F99B9B;" d="M337.994,96.15c0,0,15.879-2.734,23.251,2.381c8.782,6.094,20.942,21.883,20.942,21.883
			l-19.761,20.253L337.994,96.15z"/>
		<g>
			<g>
				<g>
					<path style="fill:#9F4F2C;" d="M265.249,151.139l-8.884,10.421l-29.293-32.364c0,0-20.487,2.474-15.549,13.081
						c3.974,8.537,30.936,39.387,40.948,49.853c2.125,2.221,5.672,2.207,7.785-0.025l21.58-22.794L265.249,151.139z"/>
					<path style="fill:#9F4F2C;" d="M227.019,129.637c-0.002-6.115,3.297-13.297,0.673-18.977c-3.977-3.549-4.624,4.765-5.969,7.096
						c-1.375-3.096-17.084-16.249-17.736-9.558c-0.095,0.975,0.311,1.93,1.035,2.59c3.164,2.883,6.993,5.173,9.495,8.791
						c-2.138-2.153-16.02-12.089-16.566-6.718c-0.118,1.165,0.501,2.271,1.451,2.957c3.439,2.485,7.387,4.345,10.946,6.67
						c-2.452-0.658-16.895-5.43-15.736-0.74c0.234,0.949,1.027,1.657,1.962,1.941c3.471,1.051,7.263,1.346,10.496,3.215
						c-2.188,0.478-14.543-0.357-11.794,3.246c0.503,0.659,1.276,1.064,2.101,1.145c2.715,0.268,5.652-0.007,7.896,1.847
						c3.872,2.996,4.876,8.445,8.022,11.992C220.875,145.691,227.473,136.937,227.019,129.637z"/>
				</g>
				
					<path style="fill:none;stroke:#292925;stroke-width:0.75;stroke-linecap:round;stroke-linejoin:round;stroke-miterlimit:10;" d="
					M252.859,157.686c0,0,9.248,8.928,11.141,15.797"/>
				
					<path style="fill:none;stroke:#292925;stroke-width:0.75;stroke-linecap:round;stroke-linejoin:round;stroke-miterlimit:10;" d="
					M221.213,118.697c0,0-12.408,1.147-12.505,12.909"/>
				
					<path style="fill:none;stroke:#292925;stroke-width:0.75;stroke-linecap:round;stroke-linejoin:round;stroke-miterlimit:10;" d="
					M221.107,118.679c0,0-4.918,4.418-1.784,11.873"/>
			</g>
			<path style="fill:#F99B9B;" d="M295.575,111.022c0,0-12.617,2.568-34.068,39.353c0,0,12.885,24.317,20.531,22.3l17.059-20.797
				L295.575,111.022z"/>
		</g>
		<path style="fill:#9F4F2C;" d="M414.406,313.6l2.074,33.733c0,0,15.582,12.499,28.114-0.346l1.37-30.167
			C445.965,316.82,431.885,291.57,414.406,313.6z"/>
		<path style="fill:#9F4F2C;" d="M326.944,367.763l3.016,39.445c0,0,17.147,18.369,27.534-0.339l1.836-39.505L326.944,367.763z"/>
		<path style="fill:#538985;" d="M359.329,367.364c-14.805,17.138-32.385,0.399-32.385,0.399l-14.672-157.517
			c47.86,6.922,80.276-21.946,80.276-21.946l49.735,43.203c2.964,2.575,4.645,6.322,4.597,10.248l-0.915,75.069
			c-17.484,8.137-31.559-3.22-31.559-3.22l-5.622-52.353l-40.749-22.059L359.329,367.364z"/>
		<g>
			<path style="fill:#9F4F2C;" d="M379.921,122.736l16.814,15.453l34.384-36.775l11.329,14.927l-40.048,53.17
				c-2.407,3.221-7.045,3.716-10.077,1.074l-31.807-27.713L379.921,122.736z"/>
			<g>
				<path style="fill:#9F4F2C;" d="M440.286,98.16c-4.091-1.178-14.406,5.509-14.879,9.63
					C436.456,112.753,457.879,103.225,440.286,98.16z"/>
				<g>
					<path style="fill:#E5AA41;" d="M442.878,89.982c0,0-2.063,17.605-5.681,17.663c-4.386,0.07-6.114-17.517-6.114-17.517
						L442.878,89.982z"/>
					<path style="fill:#9F4F2C;" d="M431.082,90.127c0.009,0.743,2.657,1.313,5.914,1.273c3.257-0.04,5.89-0.675,5.881-1.418
						c-0.009-0.743-2.657-1.313-5.914-1.272C433.706,88.749,431.073,89.384,431.082,90.127z"/>
					<g>
						<path style="fill:#E5AA41;" d="M431.617,133.499c0.009,0.743,2.657,1.313,5.914,1.273c3.257-0.04,5.89-0.675,5.881-1.418
							c-0.009-0.743-2.657-1.313-5.914-1.272C434.241,132.122,431.607,132.757,431.617,133.499z"/>
						
							<rect x="436.735" y="107.045" transform="matrix(-0.9999 0.0123 -0.0123 -0.9999 876.1511 235.079)" style="fill:#E5AA41;" width="1.235" height="26.383"/>
					</g>
				</g>
				<g>
					<path style="fill:#9F4F2C;" d="M436.72,108.851c-0.955,1.129-0.827,3.098,0.785,3.031c5.395,0.643,13.573-8.364,7.532-11.608
						C441.721,99.251,439.006,106.851,436.72,108.851z"/>
					
						<path style="fill:none;stroke:#292925;stroke-width:0.75;stroke-linecap:round;stroke-linejoin:round;stroke-miterlimit:10;" d="
						M443.676,101.017c-1.851,3.357-5.224,6.319-6.956,7.834c-0.955,1.129-1.088,2.718,0.524,2.651"/>
				</g>
				<g>
					<path style="fill:#9F4F2C;" d="M445.828,111.462c-0.808,1.181-4.848,2.478-7.621,2.447c-1.702-0.02-2.257-2.028-0.844-2.954
						c2.5-1.637,5.109-3.434,6.775-5.575C449.391,101.232,448.687,109.429,445.828,111.462z"/>
					
						<path style="fill:none;stroke:#292925;stroke-width:0.75;stroke-linecap:round;stroke-linejoin:round;stroke-miterlimit:10;" d="
						M446.267,111.189c-1.676,1.146-5.286,2.751-8.06,2.719c-1.702-0.02-2.257-2.028-0.844-2.954c0,0,7.488-3.087,9.827-6.75"/>
				</g>
				<g>
					<path style="fill:#9F4F2C;" d="M438.378,102.99c2.288-0.864,4.49,0.535,2.906,2.639c-2.699,3.655-8.35,5.134-12.818,6.164
						c-2.111,0.063-2.788-1.255-2.597-2.752c0.264-2.068,2.126-3.766,4.374-4.24C432.947,104.231,435.729,103.882,438.378,102.99z"
						/>
					
						<path style="fill:none;stroke:#292925;stroke-width:0.75;stroke-linecap:round;stroke-linejoin:round;stroke-miterlimit:10;" d="
						M430.243,104.801c2.704-0.57,5.487-0.92,8.135-1.812c2.288-0.864,4.49,0.535,2.906,2.639c-2.699,3.655-8.35,5.134-12.818,6.164
						"/>
				</g>
				<g>
					<path style="fill:#9F4F2C;" d="M445.225,118.688c-0.912,0.854-4.599,1.196-6.956,0.645c-1.447-0.338-1.54-2.155-0.161-2.676
						c2.439-0.923,5.002-1.961,6.826-3.471C450.193,110.644,448.045,117.496,445.225,118.688z"/>
					
						<path style="fill:none;stroke:#292925;stroke-width:0.75;stroke-linecap:round;stroke-linejoin:round;stroke-miterlimit:10;" d="
						M445.225,118.688c-1.645,0.66-4.599,1.196-6.956,0.645c-1.447-0.338-1.54-2.155-0.161-2.676c0,0,6.864-1.327,8.547-4.162"/>
				</g>
				<g>
					<path style="fill:#9F4F2C;" d="M445.478,116.301c-0.912,0.854-4.599,1.196-6.956,0.645c-1.447-0.338-1.54-2.155-0.161-2.677
						c2.439-0.923,5.002-1.961,6.826-3.471C450.445,108.258,448.298,115.109,445.478,116.301z"/>
					
						<path style="fill:none;stroke:#292925;stroke-width:0.75;stroke-linecap:round;stroke-linejoin:round;stroke-miterlimit:10;" d="
						M447.726,113.971c-1.98,1.99-6.847,3.526-9.204,2.976c-1.447-0.338-1.54-2.155-0.161-2.677c0,0,6.864-1.327,8.547-4.163"/>
				</g>
			</g>
			
				<line style="fill:none;stroke:#292925;stroke-linecap:round;stroke-linejoin:round;stroke-miterlimit:10;" x1="397.801" y1="137.05" x2="389.761" y2="147.721"/>
		</g>
		<g>
			<path style="fill:none;stroke:#FBF0E1;stroke-width:0.75;stroke-linecap:round;stroke-linejoin:round;stroke-miterlimit:10;" d="
				M315.376,234.105c6.534-2.951,10.424-11.989,8.104-19.491"/>
			<path style="fill:none;stroke:#FBF0E1;stroke-width:0.75;stroke-linecap:round;stroke-linejoin:round;stroke-miterlimit:10;" d="
				M400.06,194.248c-2.547,1.225-5.505,1.439-8.288,0.949c-2.784-0.49-5.412-1.648-7.863-3.055"/>
			<path style="fill:none;stroke:#FBF0E1;stroke-width:0.75;stroke-linecap:round;stroke-linejoin:round;stroke-miterlimit:10;" d="
				M372.331,231.394c-2.871,2.344-4.547,6.081-4.39,9.784"/>
			<path style="fill:none;stroke:#FBF0E1;stroke-width:0.75;stroke-linecap:round;stroke-linejoin:round;stroke-miterlimit:10;" d="
				M362.727,209.769c1.307,3.86,2.95,7.607,4.905,11.183"/>
		</g>
		<g>
			<path style="fill:#F99B9B;" d="M307.373,102.938l-18.335,11.974c-4.689,3.459-6.061,7.041-5.088,9.786
				c5.514,15.567,23.051,65.82,25.392,81.724c0.379,2.576,2.122,4.733,4.575,5.604c13.268,4.712,53.702,14.747,79.928-25.662
				c0,0-39.195-91.201-55.359-90.324L307.373,102.938z"/>
			<path style="fill:none;stroke:#292925;stroke-width:0.75;stroke-linecap:round;stroke-linejoin:round;stroke-miterlimit:10;" d="
				M292.876,150.781c0,0,4.442,12.598,7.697,23.194"/>
			<path style="fill:none;stroke:#292925;stroke-width:0.75;stroke-linecap:round;stroke-linejoin:round;stroke-miterlimit:10;" d="
				M370.984,138.507c0,0-6.438-13.909-14.121-24.43"/>
		</g>
		<g>
			<path style="fill:#9F4F2C;" d="M307.115,95.199l-0.148,11.621c0,0-0.366,6.338,8.155,6.43c5.681,0.061,7.582-4.346,8.218-7.292
				c0.306-1.415-0.16-2.893-1.201-3.899c-1.948-1.882-4.98-5.565-4.149-9.662L307.115,95.199z"/>
			<path style="fill:#292925;" d="M319.034,98.058c-0.676-1.254-1.145-2.662-1.166-4.156c-4.067-2.006-12.932,5.1-2.782,5.197
				C316.465,99.103,317.852,98.758,319.034,98.058z"/>
		</g>
		<g>
			<path style="fill:#9F4F2C;" d="M319.128,83.2c3.736,12.384-3.818,19.34-13.996,12.588c-6.749-5.579-11.333-17.977-3.17-24.277
				C311.728,64.746,316.707,75.176,319.128,83.2z"/>
			<g>
				<g>
					
						<path style="fill:none;stroke:#292925;stroke-width:0.75;stroke-linecap:round;stroke-linejoin:round;stroke-miterlimit:10;" d="
						M309.322,81.028c-1.852-0.978-4.331-0.148-5.222,1.747"/>
					
						<path style="fill:none;stroke:#292925;stroke-width:0.75;stroke-linecap:round;stroke-linejoin:round;stroke-miterlimit:10;" d="
						M315.524,78.483c-1.292-0.819-2.785,0.062-3.3,1.444"/>
					<path style="fill:#FBF0E1;" d="M316.654,87.937c-0.876,1.693-3.973,1.909-5.3,0.722c0,0,0.177,4.417,3.542,4.145
						C318.26,92.532,316.654,87.937,316.654,87.937z"/>
					<path style="fill:#DE5423;" d="M305.307,86.272c-0.055,1.028,0.734,1.906,1.762,1.961c1.028,0.055,1.906-0.734,1.961-1.762
						c0.055-1.028-0.734-1.906-1.763-1.961C306.24,84.455,305.362,85.244,305.307,86.272z"/>
					<path style="fill:#DE5423;" d="M313.718,82.112c-0.055,1.028,0.734,1.906,1.763,1.961c1.028,0.055,1.906-0.734,1.961-1.762
						c0.055-1.028-0.734-1.906-1.762-1.961C314.652,80.295,313.773,81.084,313.718,82.112z"/>
					
						<path style="fill:#9F4F2C;stroke:#292925;stroke-width:0.75;stroke-linecap:round;stroke-linejoin:round;stroke-miterlimit:10;" d="
						M310.367,76.277c0.709,2.926,2.363,7.08,5.986,6.674c0.301,1.929-2.548,4.662-4.319,2.917"/>
				</g>
			</g>
			<g>
				<path style="fill:#9F4F2C;" d="M302.496,92.926c-1.24,1.356-3.569,1.246-5.201-0.246c-1.632-1.492-1.949-3.801-0.709-5.158
					c1.241-1.356,3.569-1.246,5.201,0.246C303.419,89.26,303.737,91.57,302.496,92.926z"/>
				<g>
					
						<path style="fill:none;stroke:#292925;stroke-width:0.75;stroke-linecap:round;stroke-linejoin:round;stroke-miterlimit:10;" d="
						M297.076,89.376c0.287-0.476,0.859-0.762,1.412-0.706c0.553,0.056,1.058,0.451,1.247,0.975
						c-0.338-0.093-0.712-0.092-1.025,0.065c-0.313,0.158-0.547,0.489-0.532,0.84c0.008,0.186,0.083,0.365,0.19,0.518
						c0.262,0.375,0.728,0.597,1.184,0.564c0.455-0.033,0.884-0.319,1.088-0.727"/>
				</g>
			</g>
			<g>
				<path style="fill:#292925;" d="M299.803,76.499c1.939,0.011,3.708-1.761,3.694-3.7c2.024,2.279,6.078,1.41,6.991-1.497
					c2.768,4.202,8.2-1.131,6.267-4.581c-1.046-2.109-4.591-2.607-5.502-0.435c7.79-10.485-9.27-12.604-8.494-1.019
					c-4.357-1.748-9.443,1.969-9.101,6.651C280.064,84.568,309.944,96.475,299.803,76.499z"/>
				
					<path style="fill:none;stroke:#292925;stroke-width:0.75;stroke-linecap:round;stroke-linejoin:round;stroke-miterlimit:10;" d="
					M303.363,65.867c-1.231-1.506-3.358-2.217-5.247-1.754c-1.889,0.463-3.446,2.077-3.84,3.982
					c-0.185,0.893-0.112,1.881,0.412,2.627"/>
				
					<path style="fill:none;stroke:#292925;stroke-width:0.75;stroke-linecap:round;stroke-linejoin:round;stroke-miterlimit:10;" d="
					M311.784,65.525c7.535-3.997,8.519,8.222,2.063,6.276"/>
			</g>
		</g>
		<path style="fill:#F1CAA0;" d="M357.493,406.869l0.674-14.505c-9.152,3.471-19.83,2.885-28.451-1.793
			c-0.363-0.197-0.722-0.403-1.076-0.617l1.319,17.255C329.959,407.208,347.107,425.577,357.493,406.869z"/>
		<g>
			<path style="fill:#292925;" d="M360.885,405.807c-0.699-7.802-10.228-8.974-12.52-0.868c-2.238,10.153-12.767,7.141-18.539,0.975
				l0.688,11.756c0.174,2.973,1.564,5.735,3.848,7.647c12.421,10.396,28.35,26.022,44.555,24.009
				c3.441-0.902,4.134-4.485,2.776-7.463C377.403,429.488,362.104,419.413,360.885,405.807z"/>
			<path style="fill:none;stroke:#F1CA79;stroke-miterlimit:10;" d="M365.261,417.411c-0.398-0.596-1.081-0.93-1.797-0.886
				c-3.045,0.186-10.913,1.32-10.729,8.075c0.205,7.546,7.943-2.66,13.464-3.365c0.689-0.088,1.045-0.859,0.66-1.436
				L365.261,417.411z"/>
		</g>
		<path style="fill:#F1CAA0;" d="M445.221,333.219c-7.287,2.879-15.725,2.292-23.505,0.686c-2.129-0.44-4.328-1.014-6.189-2.082
			l0.954,15.51c0,0,9.725,7.79,19.988,4.733c3.426-2.038,6.262-4.998,8.28-8.448L445.221,333.219z"/>
		<g>
			<path style="fill:#292925;" d="M444.946,346.779c-0.111-5.073-0.504-8.578-3.882-9.168c-4.475,0.06-5.023,6.032-6.277,9.28
				c-5.482,4.813-16.338,1.127-18.696-5.902l0.549,15.476c0.031,2.56,1.321,4.935,3.457,6.347
				c10.326,6.83,41.032,26.242,48.59,20.79C477.812,377.019,444.946,346.779,444.946,346.779z"/>
			<path style="fill:none;stroke:#F1CA79;stroke-miterlimit:10;" d="M446.381,348.129c-1.288,0.316-2.573,0.937-3.569,1.621
				c-2.601,2.007-5.241,4.64-6.361,7.786c-0.714,2.684,2.235,4.313,4.336,2.652c1.918-2.002,2.691-3.148,4.517-4.415
				c1.315-0.912,2.782-1.58,4.309-2.058c0.564-0.177,1.161-0.368,1.841-0.579C449.354,350.996,447.552,349.247,446.381,348.129z"/>
		</g>
	</g>
	<g>
		<g>
			<path style="fill:#F1CAA0;" d="M127.373,272.419l54.34,17.479l35.531-35.669l10.851,15.278l-41.711,51.876
				c-2.507,3.144-7.159,3.491-10.105,0.755l-30.914-28.706L127.373,272.419z"/>
			<g>
				<path style="fill:#F1CAA0;" d="M226.51,251.267c-4.051-1.307-14.573,5.05-15.176,9.154
					C222.22,265.732,243.933,256.887,226.51,251.267z"/>
				<g>
					<path style="fill:#E5AA41;" d="M229.359,243.175c0,0-2.619,17.531-6.237,17.474c-4.386-0.069-5.557-17.702-5.557-17.702
						L229.359,243.175z"/>
					<path style="fill:#9F4F2C;" d="M217.565,242.947c-0.014,0.743,2.614,1.396,5.871,1.459s5.909-0.488,5.923-1.231
						c0.014-0.743-2.614-1.396-5.871-1.459C220.231,241.653,217.579,242.204,217.565,242.947z"/>
					<g>
						<path style="fill:#E5AA41;" d="M216.726,286.315c-0.014,0.743,2.614,1.396,5.871,1.459c3.257,0.063,5.909-0.488,5.923-1.231
							c0.014-0.743-2.614-1.396-5.871-1.459C219.392,285.021,216.741,285.572,216.726,286.315z"/>
						
							<rect x="222.261" y="260.049" transform="matrix(-0.9998 -0.0194 0.0194 -0.9998 440.4251 550.7438)" style="fill:#E5AA41;" width="1.235" height="26.382"/>
					</g>
				</g>
				<g>
					<path style="fill:#F1CAA0;" d="M222.607,261.84c-0.99,1.099-0.925,3.07,0.689,3.054c5.372,0.814,13.83-7.93,7.896-11.364
						C227.909,252.403,224.956,259.914,222.607,261.84z"/>
					
						<path style="fill:none;stroke:#292925;stroke-width:0.75;stroke-linecap:round;stroke-linejoin:round;stroke-miterlimit:10;" d="
						M229.808,254.23c-1.956,3.297-5.421,6.151-7.201,7.61c-0.99,1.099-1.174,2.682,0.44,2.667"/>
				</g>
				<g>
					<path style="fill:#F1CAA0;" d="M231.628,264.738c-0.845,1.155-4.924,2.324-7.695,2.204c-1.701-0.073-2.192-2.099-0.75-2.979
						c2.55-1.557,5.215-3.271,6.948-5.358C235.512,254.626,234.55,262.797,231.628,264.738z"/>
					
						<path style="fill:none;stroke:#292925;stroke-width:0.75;stroke-linecap:round;stroke-linejoin:round;stroke-miterlimit:10;" d="
						M232.075,264.479c-1.711,1.092-5.371,2.582-8.142,2.463c-1.701-0.073-2.192-2.099-0.75-2.979c0,0,7.582-2.848,10.036-6.436"/>
				</g>
				<g>
					<path style="fill:#F1CAA0;" d="M224.45,256.034c2.314-0.792,4.471,0.676,2.821,2.73c-2.814,3.568-8.509,4.867-13.007,5.756
						c-2.112-0.004-2.747-1.342-2.508-2.833c0.329-2.058,2.244-3.697,4.506-4.1C218.982,257.103,221.774,256.842,224.45,256.034z"/>
					
						<path style="fill:none;stroke:#292925;stroke-width:0.75;stroke-linecap:round;stroke-linejoin:round;stroke-miterlimit:10;" d="
						M216.261,257.588c2.721-0.484,5.513-0.746,8.188-1.553c2.314-0.792,4.471,0.676,2.821,2.73
						c-2.814,3.568-8.509,4.867-13.007,5.756"/>
				</g>
				<g>
					<path style="fill:#F1CAA0;" d="M230.797,271.941c-0.938,0.824-4.634,1.05-6.973,0.425c-1.435-0.384-1.471-2.202-0.076-2.68
						c2.467-0.845,5.061-1.802,6.932-3.253C236.016,264.059,233.653,270.839,230.797,271.941z"/>
					
						<path style="fill:none;stroke:#292925;stroke-width:0.75;stroke-linecap:round;stroke-linejoin:round;stroke-miterlimit:10;" d="
						M230.797,271.941c-1.665,0.607-4.634,1.05-6.973,0.425c-1.435-0.384-1.471-2.202-0.076-2.68c0,0,6.902-1.109,8.674-3.89"/>
				</g>
				<g>
					<path style="fill:#F1CAA0;" d="M231.125,269.564c-0.938,0.824-4.634,1.05-6.973,0.425c-1.435-0.384-1.472-2.202-0.076-2.68
						c2.467-0.845,5.061-1.802,6.932-3.253C236.344,261.681,233.981,268.462,231.125,269.564z"/>
					
						<path style="fill:none;stroke:#292925;stroke-width:0.75;stroke-linecap:round;stroke-linejoin:round;stroke-miterlimit:10;" d="
						M233.446,267.306c-2.042,1.927-6.955,3.308-9.294,2.683c-1.435-0.384-1.472-2.202-0.076-2.68c0,0,6.902-1.109,8.674-3.89"/>
				</g>
			</g>
			
				<line style="fill:none;stroke:#292925;stroke-linecap:round;stroke-linejoin:round;stroke-miterlimit:10;" x1="182.815" y1="288.793" x2="174.441" y2="299.205"/>
		</g>
		<g>
			<g>
				<path style="fill:#F1CAA0;" d="M114.637,408.823c-4.98-3.155-7.099-9.19-9.711-14.475
					c-6.377-11.046-12.869-21.986-18.241-33.572c-10.632-18.475-30.576-38.15-24.684-61.155
					c6.133-10.464,29.873-9.396,20.698-26.981c4.116-0.743,8.57-1.435,12.664-2.296c4.44,12.575,18.474,2.813,27.61,2.127
					c16.844-4.908,65.862,54.016,75.029,69.103c0.749,13.467-11.431,24.289-20.731,32.582
					C161.341,385.663,135.624,417.574,114.637,408.823z"/>
				<path style="fill:#292925;" d="M94.964,277.279c1.438-0.299,2.784-0.994,3.888-1.963c-1.285-0.882-2.37-2.245-3.191-4.223
					C89.134,270.023,83.817,278.32,94.964,277.279z"/>
			</g>
			<g>
				<path style="fill:#DE5423;" d="M177.271,374.156c9.3-8.293,21.48-19.115,20.731-32.582
					c-9.167-15.087-58.185-74.011-75.029-69.103c-3.157,0.237-6.898,1.557-10.626,2.666c3.273,2.732,5.963,6.251,6.953,10.372
					c1.12,4.666-0.342,10.117-4.291,12.844c-2.7,1.864-6.147,2.273-9.427,2.188c-10.031-0.261-19.844-4.873-26.569-12.3
					c-4.267,2.69-9.994,4.392-13.923,7.611c18.118,14.275,26.856,39.986,20.926,62.34c-0.089,0.335-0.177,0.673-0.258,1.013
					c0.315,0.525,0.625,1.049,0.926,1.572c5.372,11.586,11.864,22.527,18.241,33.572c2.612,5.284,4.731,11.32,9.711,14.475
					C135.624,417.574,161.341,385.663,177.271,374.156z"/>
				<g>
					<defs>
						<path id="SVGID_1_" d="M177.271,374.156c9.3-8.293,21.48-19.115,20.731-32.582c-9.167-15.087-58.185-74.011-75.029-69.103
							c-3.157,0.237-6.898,1.557-10.626,2.666c3.273,2.732,5.963,6.251,6.953,10.372c1.12,4.666-0.342,10.117-4.291,12.844
							c-2.7,1.864-6.147,2.273-9.427,2.188c-10.031-0.261-19.844-4.873-26.569-12.3c-4.267,2.69-9.994,4.392-13.923,7.611
							c18.118,14.275,26.856,39.986,20.926,62.34c-0.089,0.335-0.177,0.673-0.258,1.013c0.315,0.525,0.625,1.049,0.926,1.572
							c5.372,11.586,11.864,22.527,18.241,33.572c2.612,5.284,4.731,11.32,9.711,14.475
							C135.624,417.574,161.341,385.663,177.271,374.156z"/>
					</defs>
					<clipPath id="SVGID_00000167357900114296840960000000588117916872266371_">
						<use xlink:href="#SVGID_1_"  style="overflow:visible;"/>
					</clipPath>
					<g style="clip-path:url(#SVGID_00000167357900114296840960000000588117916872266371_);">
						<path style="fill:none;stroke:#FBF0E1;stroke-linecap:round;stroke-linejoin:round;stroke-miterlimit:10;" d="M62.001,299.621
							c0,0,55.07-13.75,69.562-35.401"/>
						<path style="fill:none;stroke:#FBF0E1;stroke-linecap:round;stroke-linejoin:round;stroke-miterlimit:10;" d="M65.88,304.697
							c0,0,54.812-10.35,76.6-37.26"/>
						<path style="fill:none;stroke:#FBF0E1;stroke-linecap:round;stroke-linejoin:round;stroke-miterlimit:10;" d="M69.459,315.08
							c0,0,63.83-10.574,86.468-46.563"/>
						<path style="fill:none;stroke:#FBF0E1;stroke-linecap:round;stroke-linejoin:round;stroke-miterlimit:10;" d="M76.664,325.293
							c0,0,66.326-18.401,84.709-47.924"/>
						<path style="fill:none;stroke:#FBF0E1;stroke-linecap:round;stroke-linejoin:round;stroke-miterlimit:10;" d="M75.074,341.252
							c0,0,85.319-25.491,102.661-63.108"/>
						<path style="fill:none;stroke:#FBF0E1;stroke-linecap:round;stroke-linejoin:round;stroke-miterlimit:10;" d="M75.284,353.378
							c0,0,85.068-20.367,115.025-66.949"/>
						<path style="fill:none;stroke:#FBF0E1;stroke-linecap:round;stroke-linejoin:round;stroke-miterlimit:10;" d="M69.459,371.931
							c0,0,93.806-29.8,123.319-65.021"/>
						<path style="fill:none;stroke:#FBF0E1;stroke-linecap:round;stroke-linejoin:round;stroke-miterlimit:10;" d="M82.059,381.754
							c0,0,71.144-19.014,119.144-65.823"/>
						<path style="fill:none;stroke:#FBF0E1;stroke-linecap:round;stroke-linejoin:round;stroke-miterlimit:10;" d="M88.385,394.475
							c0,0,56.478-10.118,87.797-43.309"/>
					</g>
				</g>
			</g>
		</g>
		<g>
			<g>
				<path style="fill:#F99B9B;" d="M147.162,405.96c2.181,26.275,35.143,26.748,63.416,23.812
					c7.011,0.719,19.756-28.515,23.319-32.236c0,0-37.297,6.383-36.468-39.575C197.43,357.961,145.274,398.744,147.162,405.96z"/>
				<path style="fill:#F1CAA0;" d="M195.769,365.378c4.608-3.132,51.953-50.081,56.722-50.561
					c7.251-3.583,15.225-1.905,21.402,2.956c7.312,5.754,25.292,93.607,28.15,97.869c-0.001,0.001,6.631,19.38,26.891,22.784
					c20.26,3.404,0,15.66-15.103,11.234c-14.052-4.118-21.459-5.803-31.531-10.2c-1.467-0.64-2.615-1.785-3.188-3.189
					l-26.508-64.945l-22.576,31.391C230.027,402.718,182.231,424.357,195.769,365.378z"/>
				<g>
					<path style="fill:#DE5423;" d="M328.933,438.427c-20.26-3.404-26.892-22.783-26.891-22.784
						c-0.413-0.616-1.142-2.983-2.108-6.587c-11.273,8.2-26.833,3.927-30.868,2.607l10.045,24.61
						c0.573,1.403,1.721,2.548,3.188,3.189c10.073,4.397,17.479,6.082,31.531,10.2C328.933,454.086,349.193,441.831,328.933,438.427
						z"/>
					<path style="fill:none;stroke:#FBF0E1;stroke-linecap:round;stroke-linejoin:round;stroke-miterlimit:10;" d="M279.111,436.272
						c0,0,34.075,15.148,49.684,11.702c0,0,8.926-2.274,7.226-7.137"/>
				</g>
				<path style="fill:#292925;" d="M159.116,402.718l1.929,23.241c9.147,4.426,21.748,5.396,34.643,4.909
					c-9.104-4.213,15.873-53.439,15.873-53.439L159.116,402.718z"/>
			</g>
			<g>
				<path style="fill:#F99B9B;" d="M112.625,407.25c0,0,1.367,24.767,33.967,24.767c17.378,0,26.598-0.387,31.419-0.748
					c3.069-0.23,5.763-1.966,7.079-4.539l14.271-27.905c0,0-37.297,6.383-36.468-39.574
					C162.892,359.251,110.737,400.033,112.625,407.25z"/>
				<g>
					<path style="fill:#F1CAA0;" d="M162.892,359.251c4.608-3.132,47.819-43.18,52.588-43.66c7.252-3.583,17.536-3.635,21.402,2.956
						c5.376,9.167,33.944,100.359,35.276,106.886c0,0.002,4.466,18.498,24.726,21.902c20.26,3.404,0,15.66-15.103,11.234
						c-14.018-4.108-21.423-5.795-31.458-10.168c-1.517-0.661-2.712-1.833-3.331-3.273l-31.401-73.027l-16.232,26.723
						C199.36,398.825,149.355,418.229,162.892,359.251z"/>
					
						<line style="fill:none;stroke:#292925;stroke-linecap:round;stroke-linejoin:round;stroke-miterlimit:10;" x1="239.429" y1="324.398" x2="269.772" y2="415.643"/>
					
						<line style="fill:none;stroke:#292925;stroke-linecap:round;stroke-linejoin:round;stroke-miterlimit:10;" x1="230.817" y1="407.508" x2="208.626" y2="355.901"/>
				</g>
				<g>
					<path style="fill:#DE5423;" d="M296.885,447.336c-20.26-3.404-24.728-21.901-24.726-21.902
						c-0.271-0.404-1.725-6.703-2.387-8.489c-11.205,7.551-24.183,7.461-32.248,6.163l9.469,22.022
						c0.619,1.44,1.814,2.613,3.331,3.273c10.035,4.373,17.44,6.061,31.458,10.168C296.885,462.995,317.145,450.74,296.885,447.336z
						"/>
					<path style="fill:none;stroke:#FBF0E1;stroke-linecap:round;stroke-linejoin:round;stroke-miterlimit:10;" d="M246.993,445.128
						c0,0,30.277,12.803,42.847,12.165s15.385-6.071,15.385-6.071"/>
				</g>
			</g>
		</g>
		<g>
			<path style="fill:#F1CAA0;" d="M65.091,295.851c0,0-12.483,8.25-18.866,51.528c-5.991,40.616-15.319,74.043-15.319,74.043
				s-14.37,1.972-25.11,5.394c-2.264,0.721-1.758,4.053,0.618,4.053H47.7c1.883,0,3.574-1.152,4.264-2.904l36.856-93.607
				C88.82,334.358,87.72,294.968,65.091,295.851z"/>
			
				<line style="fill:none;stroke:#292925;stroke-linecap:round;stroke-linejoin:round;stroke-miterlimit:10;" x1="85.265" y1="343.386" x2="68.064" y2="387.074"/>
			
				<path style="fill:#F1CAA0;stroke:#292925;stroke-width:0.75;stroke-linecap:round;stroke-linejoin:round;stroke-miterlimit:10;" d="
				M35.757,425.664c0,0-16.681,2.281-12.255,5.274c4.425,2.994,23.078-0.07,23.078-0.07"/>
			
				<path style="fill:#F1CAA0;stroke:#292925;stroke-width:0.75;stroke-linecap:round;stroke-linejoin:round;stroke-miterlimit:10;" d="
				M20.778,424.741c0,0-18.856,2.894-14.364,6.128h16.34"/>
		</g>
		<g>
			<path style="fill:#9F4F2C;" d="M86.318,243.251c0,0,5.532,0.564,3.784,7.261l-6.344-3.176
				C83.757,247.336,83.262,243.165,86.318,243.251z"/>
			<g>
				<path style="fill:#F1CAA0;" d="M95.217,256.915c12.108,25.792-16.675,26.192-22.458,1.108
					c-0.965-4.188-0.301-8.888,3.813-10.747C84.379,243.321,91.534,250.925,95.217,256.915z"/>
				<g>
					<g>
						<path style="fill:#F1CAA0;" d="M73.232,269.291c1.802,1.3,4.088,1.205,5.105-0.214c1.018-1.418,0.381-3.622-1.421-4.922
							c-1.802-1.3-4.088-1.205-5.105,0.214C70.793,265.787,71.429,267.991,73.232,269.291z"/>
						
							<path style="fill:none;stroke:#292925;stroke-width:0.75;stroke-linecap:round;stroke-linejoin:round;stroke-miterlimit:10;" d="
							M73.857,264.835c0.536-0.338,1.267-0.337,1.803,0.003c0.536,0.34,0.849,1.003,0.773,1.634
							c-0.297-0.269-0.68-0.459-1.079-0.459c-0.4,0.001-0.809,0.219-0.973,0.584c-0.087,0.194-0.102,0.415-0.071,0.626
							c0.076,0.517,0.438,0.982,0.919,1.182c0.481,0.2,1.065,0.128,1.483-0.184"/>
					</g>
					<g>
						
							<path style="fill:none;stroke:#292925;stroke-width:0.75;stroke-linecap:round;stroke-linejoin:round;stroke-miterlimit:10;" d="
							M85.726,257.825c-2.255-0.794-4.917,0.557-5.606,2.847"/>
						
							<path style="fill:none;stroke:#292925;stroke-width:0.75;stroke-linecap:round;stroke-linejoin:round;stroke-miterlimit:10;" d="
							M92.306,253.912c-1.597-0.709-3.135,0.535-3.486,2.183"/>
						
							<path style="fill:none;stroke:#292925;stroke-width:0.75;stroke-linecap:round;stroke-linejoin:round;stroke-miterlimit:10;" d="
							M94.327,265.407c-0.806,2.022-4.302,2.613-5.942,1.413"/>
						<path style="fill:#DE5423;" d="M82.069,264.42c0.11,1.171,1.148,2.031,2.319,1.921c1.171-0.11,2.031-1.148,1.921-2.319
							c-0.11-1.171-1.148-2.031-2.319-1.921C82.819,262.211,81.959,263.249,82.069,264.42z"/>
						<path style="fill:#DE5423;" d="M90.874,258.314c0.11,1.171,1.148,2.031,2.319,1.921c1.171-0.11,2.031-1.148,1.921-2.319
							c-0.11-1.171-1.148-2.031-2.319-1.921C91.624,256.105,90.764,257.143,90.874,258.314z"/>
						
							<path style="fill:#F1CAA0;stroke:#292925;stroke-width:0.75;stroke-linecap:round;stroke-linejoin:round;stroke-miterlimit:10;" d="
							M86.112,252.284c1.29,3.186,3.853,7.602,7.877,6.537c0.663,2.129-2.098,5.693-4.391,4.017"/>
					</g>
				</g>
			</g>
			<g>
				<path style="fill:#9F4F2C;" d="M75.967,262.483c0.538-1.549,0.929-4.667-0.893-10.199c0,0,6.725,1.86,8.598-4.182
					c0,0,6.553-1.447,3.149-6.468c-3.404-5.021-12.222-1.285-14.451,4.549c-2.23,5.834-8.383,5.486-5.915,10.685
					c1.81,3.813,5.387,6.853,8.026,6.723C75.245,263.553,75.716,263.206,75.967,262.483z"/>
				
					<path style="fill:none;stroke:#9F4F2C;stroke-width:0.75;stroke-linecap:round;stroke-linejoin:round;stroke-miterlimit:10;" d="
					M73.327,246.7c0.943-0.892,1.299-2.218,1.723-3.445c0.783-2.27,2.127-4.597,4.391-5.398c1.34-0.474,2.888-0.322,4.109,0.406
					c1.054,0.627,1.835,1.632,2.422,2.709c0.683,1.253,1.122,2.822,0.444,4.077"/>
			</g>
		</g>
	</g>
	<g>
		<polygon style="fill:#DE5423;" points="686.108,343.55 690.664,356.363 702.947,350.525 697.108,362.807 709.922,367.364 
			697.108,371.92 702.947,384.203 690.664,378.364 686.108,391.178 681.551,378.364 669.269,384.203 675.107,371.92 
			662.294,367.364 675.107,362.807 669.269,350.525 681.551,356.363 		"/>
		<polygon style="fill:#538985;" points="493.621,67.445 495.591,72.987 500.904,70.462 498.378,75.774 503.92,77.745 
			498.378,79.716 500.904,85.028 495.591,82.503 493.621,88.045 491.65,82.503 486.337,85.028 488.863,79.716 483.321,77.745 
			488.863,75.774 486.337,70.462 491.65,72.987 		"/>
		<polygon style="fill:#F99B9B;" points="235.302,66.148 238.689,75.673 247.819,71.333 243.479,80.463 253.004,83.85 
			243.479,87.238 247.819,96.368 238.689,92.028 235.302,101.552 231.915,92.028 222.785,96.368 227.125,87.238 217.6,83.85 
			227.125,80.463 222.785,71.333 231.915,75.673 		"/>
		<polygon style="fill:#F99B9B;" points="76.841,200.479 78.811,206.02 84.124,203.495 81.599,208.808 87.14,210.778 
			81.599,212.749 84.124,218.061 78.811,215.536 76.841,221.078 74.87,215.536 69.558,218.061 72.083,212.749 66.541,210.778 
			72.083,208.808 69.558,203.495 74.87,206.02 		"/>
		<polygon style="fill:#E5AA41;" points="666.966,115.39 669.851,123.504 677.629,119.807 673.932,127.584 682.045,130.47 
			673.932,133.355 677.629,141.133 669.851,137.436 666.966,145.549 664.08,137.436 656.303,141.133 660,133.355 651.886,130.47 
			660,127.584 656.303,119.807 664.08,123.504 		"/>
		<polygon style="fill:#E5AA41;" points="81.185,64.663 87.61,82.73 104.928,74.498 96.696,91.816 114.763,98.241 96.696,104.666 
			104.928,121.985 87.61,113.752 81.185,131.82 74.76,113.752 57.441,121.985 65.673,104.666 47.606,98.241 65.673,91.816 
			57.441,74.498 74.76,82.73 		"/>
		<polygon style="fill:#292925;" points="156.808,80.364 152.813,67.469 139.577,64.814 152.471,60.818 155.127,47.582 
			159.123,60.477 172.358,63.132 159.464,67.128 		"/>
		<polygon style="fill:#292925;" points="718.154,315.596 714.158,302.702 700.923,300.046 713.817,296.05 716.473,282.815 
			720.469,295.709 733.704,298.365 720.81,302.36 		"/>
		<polygon style="fill:#292925;" points="621.236,89.347 618.819,81.548 610.814,79.942 618.613,77.525 620.219,69.52 
			622.636,77.319 630.641,78.925 622.842,81.342 		"/>
		<polygon style="fill:#292925;" points="35.175,299.021 32.759,291.222 24.753,289.616 32.552,287.199 34.158,279.194 
			36.575,286.993 44.58,288.599 36.782,291.016 		"/>
		<polygon style="fill:#292925;" points="484.161,433.335 480.166,420.44 466.93,417.785 479.824,413.789 482.48,400.553 
			486.476,413.448 499.711,416.103 486.817,420.099 		"/>
	</g>
</g>
</svg>
